<?xml version="1.0" encoding="utf-8"?>
<!-- Generator: Adobe Illustrator 16.0.0, SVG Export Plug-In . SVG Version: 6.00 Build 0)  -->
<!DOCTYPE svg PUBLIC "-//W3C//DTD SVG 1.1//EN" "http://www.w3.org/Graphics/SVG/1.1/DTD/svg11.dtd">
<svg version="1.1" id="图层_1" xmlns="http://www.w3.org/2000/svg" xmlns:xlink="http://www.w3.org/1999/xlink" x="0px" y="0px"
	 width="400px" height="400px" viewBox="0 0 400 400" enable-background="new 0 0 400 400" xml:space="preserve">
<g>
	<rect fill="#999999" stroke="#000000" stroke-miterlimit="10" width="400" height="400"/>
	<path fill="#FFFFFF" d="M200,209.48c31.392,0,56.84-25.448,56.84-56.839c0-31.392-25.448-56.84-56.84-56.84
		s-56.84,25.448-56.84,56.84C143.16,184.033,168.608,209.48,200,209.48z M200,228.427c-41.855,0-75.786-33.931-75.786-75.786
		c0-41.855,33.931-75.787,75.786-75.787s75.786,33.931,75.786,75.787C275.786,194.496,241.855,228.427,200,228.427z
		 M189.996,247.374c-44.754-0.004-85.668,25.279-105.684,65.308l-10.459,20.956c-4.677,9.36-0.88,20.74,8.479,25.417
		c2.627,1.313,5.522,1.997,8.459,1.998h218.416c10.464-0.005,18.942-8.492,18.937-18.956c-0.002-2.937-0.686-5.832-1.998-8.459
		l-10.459-20.956c-20.016-40.028-60.93-65.312-105.684-65.308H189.996z M189.996,228.427h20.008
		c51.928,0,99.399,29.34,122.622,75.787l10.477,20.955c9.355,18.72,1.763,41.479-16.958,50.834c-5.265,2.631-11.07,4-16.956,3.997
		H90.812c-20.929-0.001-37.893-16.967-37.893-37.896c0.001-5.878,1.369-11.677,3.997-16.936l10.458-20.955
		C90.598,257.767,138.068,228.428,189.996,228.427z M86.321,190.534v29.576l-25.257-7.104
		c-24.668-8.707-37.608-35.762-28.902-60.431c4.768-13.509,15.394-24.135,28.902-28.903l10.346-3.656
		C89.469,48.997,161.681,6.064,232.699,24.124c47.118,11.982,83.909,48.773,95.892,95.891l10.345,3.656
		c24.668,8.706,37.608,35.761,28.902,60.43c-4.767,13.51-15.393,24.136-28.902,28.905l-25.256,7.104v-67.469
		c0.014-62.784-50.871-113.69-113.654-113.705C137.242,38.922,86.335,89.807,86.321,152.59c0,0.017,0,0.034,0,0.051V190.534z
		 M332.626,141.539v53.619c14.807-5.208,22.587-21.434,17.378-36.241C347.145,150.789,340.753,144.397,332.626,141.539z
		 M67.374,141.539c-14.807,5.208-22.587,21.434-17.378,36.24c2.858,8.128,9.251,14.52,17.378,17.379V141.539z"/>
</g>
</svg>
