<?xml version="1.0" standalone="no"?><!DOCTYPE svg PUBLIC "-//W3C//DTD SVG 1.1//EN" "http://www.w3.org/Graphics/SVG/1.1/DTD/svg11.dtd"><svg class="icon" width="400px" height="400.00px" viewBox="0 0 1024 1024" version="1.1" xmlns="http://www.w3.org/2000/svg"><path fill="#ffffff" d="M930.909091 1024H698.181818a46.545455 46.545455 0 1 1 0-93.090909h186.181818a46.545455 46.545455 0 0 0 46.545455-46.545455v-186.181818a46.545455 46.545455 0 0 1 93.090909 0v232.727273a93.090909 93.090909 0 0 1-93.090909 93.090909z m46.545454-651.636364a46.545455 46.545455 0 0 1-46.545454-46.545454V139.636364a46.545455 46.545455 0 0 0-46.545455-46.545455h-186.181818a46.545455 46.545455 0 1 1 0-93.090909h232.727273a93.090909 93.090909 0 0 1 93.090909 93.090909v232.727273a46.545455 46.545455 0 0 1-46.545455 46.545454zM325.818182 93.090909H139.636364a46.545455 46.545455 0 0 0-46.545455 46.545455v186.181818a46.545455 46.545455 0 0 1-93.090909 0V93.090909a93.090909 93.090909 0 0 1 93.090909-93.090909h232.727273a46.545455 46.545455 0 1 1 0 93.090909zM93.090909 512a23.272727 23.272727 0 0 1 23.272727-23.272727h791.272728a23.272727 23.272727 0 1 1 0 46.545454H116.363636a23.272727 23.272727 0 0 1-23.272727-23.272727z m-46.545454 139.636364a46.545455 46.545455 0 0 1 46.545454 46.545454v186.181818a46.545455 46.545455 0 0 0 46.545455 46.545455h186.181818a46.545455 46.545455 0 1 1 0 93.090909H93.090909a93.090909 93.090909 0 0 1-93.090909-93.090909V698.181818a46.545455 46.545455 0 0 1 46.545455-46.545454z" /></svg>